<?xml version="1.0" encoding="UTF-8"?>
<svg xmlns="http://www.w3.org/2000/svg" xmlns:xlink="http://www.w3.org/1999/xlink" width="200px" height="82px" viewBox="0 0 200 82" version="1.1">
<g id="surface1">
<path style=" stroke:none;fill-rule:nonzero;fill:rgb(100%,100%,100%);fill-opacity:1;" d="M 71.21875 52.054688 L 73.210938 47.414062 C 75.359375 49.027344 78.21875 49.863281 81.042969 49.863281 C 83.128906 49.863281 84.445312 49.058594 84.445312 47.832031 C 84.414062 44.417969 71.957031 47.09375 71.859375 38.519531 C 71.828125 34.167969 75.679688 30.816406 81.140625 30.816406 C 84.382812 30.816406 87.625 31.621094 89.933594 33.457031 L 88.074219 38.195312 C 85.953125 36.84375 83.320312 35.875 80.816406 35.875 C 79.117188 35.875 77.992188 36.679688 77.992188 37.710938 C 78.023438 41.066406 90.578125 39.226562 90.707031 47.414062 C 90.707031 51.863281 86.949219 54.988281 81.554688 54.988281 C 77.609375 54.988281 73.980469 54.054688 71.21875 52.054688 "/>
<path style=" stroke:none;fill-rule:nonzero;fill:rgb(100%,100%,100%);fill-opacity:1;" d="M 147.59375 45.738281 C 146.597656 47.480469 144.738281 48.671875 142.585938 48.671875 C 139.40625 48.671875 136.839844 46.09375 136.839844 42.902344 C 136.839844 39.710938 139.40625 37.132812 142.585938 37.132812 C 144.738281 37.132812 146.597656 38.324219 147.59375 40.066406 L 153.082031 37.003906 C 151.027344 33.328125 147.082031 30.816406 142.585938 30.816406 C 135.941406 30.816406 130.546875 36.230469 130.546875 42.902344 C 130.546875 49.574219 135.941406 54.988281 142.585938 54.988281 C 147.113281 54.988281 151.027344 52.507812 153.082031 48.800781 Z M 147.59375 45.738281 "/>
<path style=" stroke:none;fill-rule:nonzero;fill:rgb(100%,100%,100%);fill-opacity:1;" d="M 93.46875 20.789062 L 100.335938 20.789062 L 100.335938 54.539062 L 93.46875 54.539062 Z M 93.46875 20.789062 "/>
<path style=" stroke:none;fill-rule:nonzero;fill:rgb(100%,100%,100%);fill-opacity:1;" d="M 155.78125 20.789062 L 155.78125 54.539062 L 162.652344 54.539062 L 162.652344 44.417969 L 170.804688 54.539062 L 179.601562 54.539062 L 169.230469 42.515625 L 178.832031 31.296875 L 170.417969 31.296875 L 162.652344 40.613281 L 162.652344 20.789062 Z M 155.78125 20.789062 "/>
<path style=" stroke:none;fill-rule:nonzero;fill:rgb(100%,100%,100%);fill-opacity:1;" d="M 120.753906 45.800781 C 119.761719 47.445312 117.707031 48.671875 115.394531 48.671875 C 112.214844 48.671875 109.648438 46.09375 109.648438 42.902344 C 109.648438 39.710938 112.214844 37.132812 115.394531 37.132812 C 117.707031 37.132812 119.761719 38.421875 120.753906 40.097656 Z M 120.753906 31.296875 L 120.753906 34.039062 C 119.632812 32.136719 116.839844 30.816406 113.917969 30.816406 C 107.882812 30.816406 103.128906 36.164062 103.128906 42.871094 C 103.128906 49.574219 107.882812 54.988281 113.917969 54.988281 C 116.839844 54.988281 119.632812 53.667969 120.753906 51.765625 L 120.753906 54.503906 L 127.625 54.503906 L 127.625 31.296875 Z M 120.753906 31.296875 "/>
<path style=" stroke:none;fill-rule:nonzero;fill:rgb(100%,100%,100%);fill-opacity:1;" d="M 28.746094 45.769531 C 28.746094 48.125 26.851562 50.023438 24.507812 50.023438 C 22.164062 50.023438 20.269531 48.125 20.269531 45.769531 C 20.269531 43.417969 22.164062 41.515625 24.507812 41.515625 L 28.746094 41.515625 Z M 28.746094 45.769531 "/>
<path style=" stroke:none;fill-rule:nonzero;fill:rgb(100%,100%,100%);fill-opacity:1;" d="M 30.863281 45.769531 C 30.863281 43.417969 32.757812 41.515625 35.101562 41.515625 C 37.445312 41.515625 39.339844 43.417969 39.339844 45.769531 L 39.339844 56.40625 C 39.339844 58.761719 37.445312 60.660156 35.101562 60.660156 C 32.757812 60.660156 30.863281 58.761719 30.863281 56.40625 Z M 30.863281 45.769531 "/>
<path style=" stroke:none;fill-rule:nonzero;fill:rgb(100%,100%,100%);fill-opacity:1;" d="M 35.101562 28.6875 C 32.757812 28.6875 30.863281 26.785156 30.863281 24.433594 C 30.863281 22.078125 32.757812 20.175781 35.101562 20.175781 C 37.445312 20.175781 39.339844 22.078125 39.339844 24.433594 L 39.339844 28.6875 Z M 35.101562 28.6875 "/>
<path style=" stroke:none;fill-rule:nonzero;fill:rgb(100%,100%,100%);fill-opacity:1;" d="M 35.101562 30.847656 C 37.445312 30.847656 39.339844 32.75 39.339844 35.101562 C 39.339844 37.453125 37.445312 39.355469 35.101562 39.355469 L 24.476562 39.355469 C 22.132812 39.355469 20.238281 37.453125 20.238281 35.101562 C 20.238281 32.75 22.132812 30.847656 24.476562 30.847656 Z M 35.101562 30.847656 "/>
<path style=" stroke:none;fill-rule:nonzero;fill:rgb(100%,100%,100%);fill-opacity:1;" d="M 52.085938 35.101562 C 52.085938 32.75 53.980469 30.847656 56.324219 30.847656 C 58.667969 30.847656 60.558594 32.75 60.558594 35.101562 C 60.558594 37.453125 58.667969 39.355469 56.324219 39.355469 L 52.085938 39.355469 Z M 52.085938 35.101562 "/>
<path style=" stroke:none;fill-rule:nonzero;fill:rgb(100%,100%,100%);fill-opacity:1;" d="M 49.964844 35.101562 C 49.964844 37.453125 48.070312 39.355469 45.730469 39.355469 C 43.386719 39.355469 41.492188 37.453125 41.492188 35.101562 L 41.492188 24.433594 C 41.492188 22.078125 43.386719 20.175781 45.730469 20.175781 C 48.070312 20.175781 49.964844 22.078125 49.964844 24.433594 Z M 49.964844 35.101562 "/>
<path style=" stroke:none;fill-rule:nonzero;fill:rgb(100%,100%,100%);fill-opacity:1;" d="M 45.730469 52.152344 C 48.070312 52.152344 49.964844 54.054688 49.964844 56.40625 C 49.964844 58.761719 48.070312 60.660156 45.730469 60.660156 C 43.386719 60.660156 41.492188 58.761719 41.492188 56.40625 L 41.492188 52.152344 Z M 45.730469 52.152344 "/>
<path style=" stroke:none;fill-rule:nonzero;fill:rgb(100%,100%,100%);fill-opacity:1;" d="M 45.730469 50.023438 C 43.386719 50.023438 41.492188 48.125 41.492188 45.769531 C 41.492188 43.417969 43.386719 41.515625 45.730469 41.515625 L 56.355469 41.515625 C 58.699219 41.515625 60.59375 43.417969 60.59375 45.769531 C 60.59375 48.125 58.699219 50.023438 56.355469 50.023438 Z M 45.730469 50.023438 "/>
</g>
</svg>
