<svg width="273" height="11" xmlns="http://www.w3.org/2000/svg"><g stroke="#67BECE" stroke-width="4" fill="none" fill-rule="evenodd" stroke-linecap="round" stroke-linejoin="round"><path d="M25.053 8.49l5.587-5.587 5.587 5.588M36.227 8.49l5.585-5.587 5.59 5.588M47.402 8.49l5.588-5.587 5.586 5.588M58.576 8.49l5.588-5.587 5.587 5.588M69.751 8.49l5.587-5.587 5.588 5.588"/><g><path d="M2.702 8.49l5.587-5.587 5.588 5.588M13.877 8.49l5.588-5.587 5.588 5.588"/></g><g><path d="M80.926 8.49l5.587-5.587 5.589 5.588M92.102 8.49l5.586-5.587 5.587 5.588M103.275 8.49l5.587-5.587 5.589 5.588M114.451 8.49l5.587-5.587 5.587 5.588M125.625 8.49l5.588-5.587 5.587 5.588"/></g><g><path d="M159.15 8.49l5.587-5.587 5.587 5.588M170.324 8.49l5.586-5.587 5.59 5.588M181.5 8.49l5.588-5.587 5.586 5.588M192.674 8.49l5.588-5.587 5.587 5.588M203.849 8.49l5.587-5.587 5.587 5.588"/><g><path d="M136.8 8.49l5.587-5.587 5.588 5.588M147.975 8.49l5.587-5.587 5.588 5.588"/></g><g><path d="M215.023 8.49l5.587-5.587 5.589 5.588M226.199 8.49l5.586-5.587 5.588 5.588M237.373 8.49l5.587-5.587 5.589 5.588M248.549 8.49l5.587-5.587 5.587 5.588M259.723 8.49l5.588-5.587 5.586 5.588"/></g></g></g></svg>